<svg width="512" height="512" viewBox="0 0 512 512" fill="none" xmlns="http://www.w3.org/2000/svg">
<path fill-rule="evenodd" clip-rule="evenodd" d="M55.6482 25.4772C89.3517 40.2711 144.668 38.5194 181.77 10.5184C233.649 48.5303 283.579 44.6281 331.187 10.5184C362.927 33.4611 411.795 43.2569 457.648 25.9587L478.204 54.5191C424.603 126.153 444.444 194.625 499.731 254.883L476.515 278.423C481.774 432.924 362.112 469.811 293.399 473.641L256.455 503.867L219.787 474.091C97.1139 463.497 32.3447 398.78 36.3517 278.82L12.4817 254.703C59.1214 204.256 94.1682 135.321 34.2556 54.5036L55.6482 25.4772Z" fill="black" stroke="black" stroke-width="0.672969"/>
<path fill-rule="evenodd" clip-rule="evenodd" d="M58.4412 275.709H453.171C463.545 384.939 394.148 443.937 288.621 449.738L221.564 449.907C120.603 442.649 45.3844 389.344 58.4412 275.709Z" fill="#004D98"/>
<path d="M284.52 277.022H228.606V451.565H284.52V277.022Z" fill="#A50044"/>
<path d="M173.235 277.022H117.32V433.014H173.235V277.022Z" fill="#A50044"/>
<path d="M173.235 425.021H136.815V441.089H173.235V425.021Z" fill="#A50044"/>
<path d="M395.17 277.022H339.256V433.014H395.17V277.022Z" fill="#A50044"/>
<path d="M375.675 425.021H339.256V441.089H375.675V425.021Z" fill="#A50044"/>
<path fill-rule="evenodd" clip-rule="evenodd" d="M254.745 61.5692V216.604L66.3183 217.967L85.7402 143.346L61.548 54.0731L180.805 38.74L254.745 61.5692Z" fill="white"/>
<path fill-rule="evenodd" clip-rule="evenodd" d="M257.47 61.5692V216.604L445.897 217.967L426.475 143.346L450.667 54.0731L331.41 38.74L257.47 61.5692Z" fill="#FFED02"/>
<path d="M199.892 43.1563H145.867V215.643H199.892V43.1563Z" fill="#DB0030"/>
<path d="M254.745 161.519V107.494H86.6363V161.519H254.745Z" fill="#DB0030"/>
<path d="M294.361 55.3839H274.38V214.52H294.361V55.3839Z" fill="#DB0030"/>
<path d="M332.291 43.9841H312.31V214.895H332.291V43.9841Z" fill="#DB0030"/>
<path d="M370.47 53.6179H350.489V215.252H370.47V53.6179Z" fill="#DB0030"/>
<path d="M408.292 59.5391H388.31V215.107H408.292V59.5391Z" fill="#DB0030"/>
<path fill-rule="evenodd" clip-rule="evenodd" d="M181.455 22.7991C146.658 48.3042 91.5942 50.9876 59.9844 38.2353L47.3242 54.5338C101.638 130.957 70.4321 207.843 27.3665 254.931L47.198 275.919C39.1506 391.108 106.372 457.727 224.546 464.582L256.575 491.332L288.541 464.161C357.36 462.974 478.029 424.378 465.027 275.751L484.964 255.099C434.388 199.01 416.956 122.185 465.826 54.5338L453.944 38.3405C410.702 52.5512 361.233 44.6742 331.464 23.1566C286.814 55.1475 230.112 58.4498 181.455 22.7991ZM331.864 44.6916C358.71 61.3607 388.376 66.1038 439.518 61.621C413.908 105.929 411.142 158.713 433.818 209.674L78.9116 209.464C97.9999 163.927 102.38 111.526 72.4553 60.6115C109.343 65.9669 145.376 64.6838 181.308 45.1332C230.046 73.7446 280.186 74.268 331.864 44.6916ZM66.3145 277.434H446.899C456.902 382.748 389.991 439.62 288.247 445.213L223.579 445.381C126.237 438.384 53.7258 386.995 66.3145 277.434Z" fill="#EDBB00" stroke="#DEB405" stroke-width="0.631164"/>
<path fill-rule="evenodd" clip-rule="evenodd" d="M72.0449 61.1659C101.969 112.081 97.5863 164.48 78.498 210.017L433.397 210.227C410.721 159.265 413.496 106.482 439.106 62.1731C387.964 66.6559 358.306 61.9174 331.459 45.2483C279.782 74.8247 229.625 74.2899 180.887 45.6785C144.955 65.229 108.932 66.5214 72.0449 61.1659Z" stroke="black" stroke-width="2.69187"/>
<path fill-rule="evenodd" clip-rule="evenodd" d="M66.3109 277.433H446.889C456.892 382.747 389.982 439.63 288.239 445.223L223.586 445.386C126.245 438.389 53.7222 386.995 66.3109 277.433Z" stroke="black" stroke-width="2.69187"/>
<path d="M256.229 66.491V210.294" stroke="black" stroke-width="2.69187"/>
<path d="M308.715 359.498C308.716 366.294 307.379 373.023 304.779 379.302C302.179 385.581 298.368 391.286 293.563 396.092C288.758 400.897 283.054 404.71 276.776 407.31C270.497 409.911 263.768 411.25 256.972 411.25C250.177 411.25 243.448 409.911 237.169 407.31C230.891 404.71 225.187 400.897 220.382 396.092C215.577 391.286 211.766 385.581 209.166 379.302C206.566 373.023 205.229 366.294 205.23 359.498C205.229 352.702 206.566 345.973 209.166 339.694C211.766 333.416 215.577 327.71 220.382 322.905C225.187 318.099 230.891 314.287 237.169 311.686C243.448 309.085 250.177 307.746 256.972 307.746C263.768 307.746 270.497 309.085 276.776 311.686C283.054 314.287 288.758 318.099 293.563 322.905C298.368 327.71 302.179 333.416 304.779 339.694C307.379 345.973 308.716 352.702 308.715 359.498Z" fill="#EDBB00" stroke="black" stroke-width="2.70536"/>
<path d="M227.123 317.351C221.084 339.363 217.339 361.038 234.761 371.452C246.935 378.729 255.168 363.888 257.448 358.138" stroke="black" stroke-width="2.35539"/>
<path d="M209.09 380.363C219.29 379.897 224.612 379.058 231.155 369.118" stroke="black" stroke-width="2.35539"/>
<path d="M257.019 358.524C267.255 352.233 276.359 355.277 280.588 371.028C290.55 367.025 300.151 374.713 302.653 382.484" stroke="black" stroke-width="2.35539"/>
<path d="M280.8 371.028C273.238 389.284 253.348 397.736 225.426 400.518" stroke="black" stroke-width="2.35539"/>
<path d="M257.035 359.273C250.752 353.52 241.087 346.937 255.168 330.025C249.193 322.454 247.565 315.056 255.375 308.036" stroke="black" stroke-width="2.35539"/>
<path d="M308.479 362.592C299.289 346.348 277.901 323.839 255.168 329.817" stroke="black" stroke-width="2.35539"/>
<path d="M184.627 218.909V219.099H175.227V237.353V247.7V267.994H185.384V247.7H199.874V237.353H185.384V229.424H210.389V218.909H184.627Z" fill="black"/>
<path fill-rule="evenodd" clip-rule="evenodd" d="M261.527 234.226L270.644 229.465C264.824 216.597 241.229 212.938 233.466 229.465C225.458 249.178 233.971 267.492 249.472 269.276C259.322 270.71 267.127 265.888 270.441 257.322L261.425 252.156C259.024 258.139 249.869 262.257 242.887 252.257C240.737 247.789 240.186 240.912 242.584 234.226C248.309 226.359 256.679 227.21 261.527 234.226Z" fill="black" stroke="black" stroke-width="0.134594"/>
<path fill-rule="evenodd" clip-rule="evenodd" d="M296.382 219.036L296.571 268.373L323.427 268.267C332.166 267.044 343.621 252.739 330.199 241.622C337.295 235.368 336.406 221.99 322.207 219.141L296.382 219.036ZM306.708 228.752H320.083C325.965 230.444 324.22 236.099 320.272 237.059H306.708V228.752ZM306.813 246.69L320.882 246.88C327.842 248.951 326.27 256.882 321.093 258.236L306.918 258.131L306.813 246.69Z" fill="black" stroke="black" stroke-width="0.672969"/>
</svg>
